# AST/ASF file generated using VICON BodyLanguage
# -----------------------------------------------
:version 1.10
:name VICON
:units
  mass 1.0
  length 0.45
  angle deg
:documentation
   .ast/.asf automatically generated from VICON data using
   VICON BodyBuilder and BodyLanguage model FoxedUp or BRILLIANT.MOD
:root
   order TX TY TZ RX RY RZ
   axis XYZ
   position 0 0 0  
   orientation 0 0 0 
:bonedata
  begin
     id 1 
     name lhipjoint
     direction 0.62366 -0.717238 0.310833 
     length 2.53602 
     axis 0 0 0  XYZ
  end
  begin
     id 2 
     name lfemur
     direction 0.34202 -0.939693 0  
     length 7.40817  
     axis 0 0 20  XYZ
    dof rx ry rz
    limits (-160.0 20.0)
           (-70.0 70.0)
           (-60.0 70.0)
  end
  begin
     id 3 
     name ltibia
     direction 0.34202 -0.939693 0   
     length 7.7045   
     axis 0 0 20   XYZ
    dof rx
    limits (-10.0 170.0)
  end
  begin
     id 4 
     name lfoot
     direction 0.0673888 -0.185149 0.980397   
     length 2.09456   
     axis -90 7.62852e-016 20   XYZ
    dof rx rz
    limits (-45.0 90.0)
           (-70.0 20.0)
  end
  begin
     id 5 
     name ltoes
     direction 1.53575e-011 -4.21994e-011 1   
     length 1.05543   
     axis -90 7.62852e-016 20   XYZ
    dof rx
    limits (-90.0 20.0)
  end
  begin
     id 6 
     name rhipjoint
     direction -0.489018 -0.800347 0.346851   
     length 2.27268  
     axis 0 0 0  XYZ 
  end
  begin
     id 7 
     name rfemur
     direction -0.34202 -0.939693 0   
     length 7.55487   
     axis 0 0 -20   XYZ
    dof rx ry rz
    limits (-160.0 20.0)
           (-70.0 70.0)
           (-70.0 60.0)
  end
  begin
     id 8 
     name rtibia
     direction -0.34202 -0.939693 0   
     length 7.78969   
     axis 0 0 -20   XYZ
    dof rx
    limits (-10.0 170.0)
 end
 begin
     id 9 
     name rfoot
     direction -0.0859318 -0.236096 0.967923   
     length 2.19143  
     axis -90 -7.62852e-016 -20   XYZ
    dof rx rz
    limits (-45.0 90.0)
           (-20.0 70.0)
  end
  begin
     id 10 
     name rtoes
     direction -1.53538e-011 -4.21989e-011 1   
     length 1.09845   
     axis -90 -7.62852e-016 -20   XYZ
    dof rx
    limits (-90.0 20.0)
  end
  begin
     id 11 
     name lowerback
     direction -0.00762546 0.998978 -0.0445553   
     length 1.98161   
     axis 0 0 0   XYZ
    dof rx ry rz
    limits (-20.0 45.0)
           (-30.0 30.0)
           (-30.0 30.0)
  end
  begin
     id 12 
     name upperback
     direction 0.0422361 0.998867 -0.0219156   
     length 1.97558   
     axis 0 0 0   XYZ
    dof rx ry rz
    limits (-20.0 45.0)
           (-30.0 30.0)
           (-30.0 30.0)
  end
  begin
     id 13 
     name thorax
     direction 0.0442465 0.999021 7.47603e-005   
     length 1.97799   
     axis 0 0 0   XYZ
    dof rx ry rz
    limits (-20.0 45.0)
           (-30.0 30.0)
           (-30.0 30.0)
  end
  begin
     id 14 
     name lowerneck
     direction 0.00312169 0.984641 0.174564   
     length 1.78995   
     axis 0 0 0   XYZ
    dof rx ry rz
    limits (-20.0 45.0)
           (-30.0 30.0)
           (-30.0 30.0)
  end
  begin
     id 15 
     name upperneck
     direction -0.0383028 0.985255 -0.166749   
     length 1.83053   
     axis 0 0 0   XYZ
    dof rx ry rz
    limits (-20.0 45.0)
           (-30.0 30.0)
           (-30.0 30.0)
  end
  begin
     id 16
     name head
     direction -0.0129546 0.997059 -0.0755386  
     length 1.84088  
     axis 0 0 0   XYZ
    dof rx ry rz
    limits (-20.0 45.0)
           (-30.0 30.0)
           (-30.0 30.0)
  end
  begin
     id 17 
     name lclavicle
     direction 0.912857 0.370519 -0.171488  
     length 3.51279  
     axis 0 0 0   XYZ
    dof ry rz
    limits (-20.0 10.0)
           (0.0 20.0)
  end
  begin
     id 18 
     name lhumerus
     direction 1 -4.48962e-011 3.64361e-027   
     length 4.95663   
     axis 180 -30 -90   XYZ
    dof rx ry rz
    limits (-60.0 90.0)
           (-90.0 90.0)
           (-90.0 90.0)
  end
  begin
     id 19
     name lradius
     direction 1 -4.48974e-011 5.97202e-027   
     length 3.38177   
     axis 180 -30 -90   XYZ
    dof rx
    limits (-10.0 170.0)
  end
  begin
     id 20
     name lwrist
     direction 1 -4.4896e-011 9.83288e-027   
     length 1.69088   
     axis -9.31221e-015 90 90   XYZ
    dof ry
    limits (-180.0 0.0)
 end
  begin
     id 21 
     name lhand
     direction 1 -4.4902e-011 1.96551e-026   
     length 0.662909   
     axis -1.25475e-014 90 90   XYZ
    dof rx rz
    limits (-90.0 90.0)
           (-45.0 45.0)
  end
  begin
     id 22 
     name lfingers
     direction 1 -4.48971e-011 3.93277e-026   
     length 0.534454   
     axis -2.50945e-014 90 90   XYZ
    dof rx
    limits (0.0 90.0)
  end
  begin
     id 23
     name lthumb
     direction 0.707107 -6.34933e-011 0.707107   
     length 0.767373   
     axis -90 45 -4.80359e-014   XYZ
    dof rx rz
    limits (-45.0 45.0)
           (-45.0 45.0)
  end
  begin
     id 24 
     name rclavicle
     direction -0.900919 0.395364 -0.178976   
     length 3.40627  
     axis 0 0 0   XYZ 
    dof ry rz
    limits (-10.0 20.0)
           (-20.0 0.0)
  end
  begin
     id 25 
     name rhumerus
     direction -1 -4.48969e-011 1.03875e-027  
     length 5.08365   
     axis 180 30 90   XYZ
    dof rx ry rz
    limits (-90.0 60.0)
           (-90.0 90.0)
           (-90.0 90.0)
  end
  begin
     id 26 
     name rradius
     direction -1 -4.48951e-011 5.02733e-027   
     length 3.35984   
     axis 180 30 90   XYZ
    dof rx
    limits (-10.0 170.0)
  end
  begin
     id 27 
     name rwrist
     direction -1 -4.49011e-011 9.82828e-027   
     length 1.67992   
     axis -9.31221e-015 -90 -90   XYZ
    dof ry
    limits (-180.0 0.0)
  end
  begin
     id 28
     name rhand
     direction -1 -4.48894e-011 1.96774e-026   
     length 0.820764   
     axis -1.25475e-014 -90 -90   XYZ
    dof rx rz
    limits (-90.0 90.0)
           (-45.0 45.0)
  end
  begin
     id 29
     name rfingers
     direction -1 -4.49095e-011 3.92833e-026   
     length 0.661721   
     axis -2.50945e-014 -90 -90   XYZ
    dof rx
    limits (0.0 90.0)
  end
  begin
     id 30
     name rthumb
     direction -0.707107 -6.34881e-011 0.707107   
     length 0.950103   
     axis -90 -45 4.80359e-014   XYZ
    dof rx rz
    limits (-45.0 45.0)
           (-45.0 45.0)
  end
:hierarchy
  begin
    root lhipjoint rhipjoint lowerback
    lhipjoint lfemur
    lfemur ltibia
    ltibia lfoot
    lfoot ltoes
    rhipjoint rfemur
    rfemur rtibia
    rtibia rfoot
    rfoot rtoes
    lowerback upperback
    upperback thorax
    thorax lowerneck lclavicle rclavicle
    lowerneck upperneck
    upperneck head
    lclavicle lhumerus
    lhumerus lradius
    lradius lwrist
    lwrist lhand lthumb
    lhand lfingers
    rclavicle rhumerus
    rhumerus rradius
    rradius rwrist
    rwrist rhand rthumb
    rhand rfingers
  end

#!OML:ASF I:\golf\golf\golf 2\Subject 1\2002-09-07\Subject1.ASF
:FULLY-SPECIFIED
:DEGREES
63
root -6.50313 17.7567 0.145395 -72.3917 86.8422 -89.7345
lowerback 2.8905 2.07375 -1.3289
upperback 3.38728 2.8119 4.29912
thorax 1.5883 1.37998 5.14347
lowerneck -16.146 -1.62912 1.51984
upperneck 39.5475 0.586523 -4.13386
head 17.1665 0.444527 -1.86335
rclavicle 5.56597e-015 3.02153e-014
rhumerus -6.99026 -0.951924 -101.342
rradius 23.0508
rwrist -36.9699
rhand -11.3623 -5.17823
rfingers 7.12502
rthumb 14.6715 -34.6392
lclavicle 5.56597e-015 3.02153e-014
lhumerus -7.97762 -45.1371 109.661
lradius 22.3136
lwrist 39.8596
lhand -13.7522 74.5799
lfingers 7.12502
lthumb -167.632 75.806
rfemur -31.1877 -3.06578 12.0536
rtibia 29.649
rfoot -8.36812 -12.0949
rtoes -7.70966
lfemur -31.2343 9.86279 -10.8817
ltibia 31.8809
lfoot -12.3537 -0.524797
ltoes -22.7558
64
root -6.50337 17.7544 0.142456 -73.6524 86.8579 -90.9904
lowerback 2.93053 2.06855 -1.28155
upperback 3.3803 2.8064 4.29527
thorax 1.56147 1.37888 5.11075
lowerneck -16.1636 -1.62423 1.51485
upperneck 39.5815 0.613313 -4.15863
head 17.1915 0.452902 -1.86948
rclavicle -3.33958e-014 -2.22639e-014
rhumerus -7.00955 -0.914953 -101.452
rradius 23.1384
rwrist -37.2466
rhand -11.2965 -4.95088
rfingers 7.12502
rthumb 14.7348 -34.4072
lclavicle -3.33958e-014 -2.22639e-014
lhumerus -8.08477 -45.3921 109.836
lradius 22.0837
lwrist 38.5157
lhand -14.0022 74.7225
lfingers 7.12502
lthumb -167.873 75.6489
rfemur -31.1677 -3.03712 12.008
rtibia 29.6564
rfoot -8.41491 -12.1719
rtoes -7.45841
lfemur -31.2578 9.84403 -10.9095
ltibia 31.8941
lfoot -12.3348 -0.539489
ltoes -23.0819
65
root -6.50405 17.7531 0.138039 -76.4133 86.8096 -93.7072
lowerback 3.02075 2.02366 -1.12617
upperback 3.38017 2.7515 4.31693
thorax 1.52197 1.35573 5.0428
lowerneck -16.1581 -1.63046 1.48504
upperneck 39.6071 0.620843 -4.1601
head 17.2049 0.452669 -1.86371
rclavicle -2.14687e-014 -8.74653e-015
rhumerus -6.92658 -1.28801 -101.583
rradius 23.0187
rwrist -37.0249
rhand -11.3193 -4.69267
rfingers 7.12502
rthumb 14.7129 -34.1506
lclavicle -2.14687e-014 -8.74653e-015
lhumerus -8.20627 -45.7441 110.007
lradius 21.8772
lwrist 37.223
lhand -13.813 75.1824
lfingers 7.12502
lthumb -167.691 75.1999
rfemur -31.0875 -3.02786 12.0348
rtibia 29.6709
rfoot -8.53655 -12.2922
rtoes -6.80783
lfemur -31.2711 9.84498 -10.8791
ltibia 31.9059
lfoot -12.3349 -0.601737
ltoes -23.6416
66
root -6.50465 17.7528 0.135487 -78.5556 86.7586 -95.8798
lowerback 3.00641 1.97896 -1.02759
upperback 3.37189 2.69481 4.36127
thorax 1.52911 1.3295 5.03504
lowerneck -16.1071 -1.63813 1.43298
upperneck 39.5749 0.626533 -4.16155
head 17.1745 0.446887 -1.85242
rclavicle 3.37934e-014 7.95139e-016
rhumerus -6.8757 -1.26626 -101.72
rradius 23.0265
rwrist -37.5708
rhand -12.0207 -4.45359
rfingers 7.12502
rthumb 14.0371 -33.9596
lclavicle 3.37934e-014 7.95139e-016
lhumerus -8.29812 -46.2084 110.163
lradius 21.6916
lwrist 36.231
lhand -12.9637 75.241
lfingers 7.12502
lthumb -166.872 75.1922
rfemur -31.0975 -3.07643 12.0908
rtibia 29.687
rfoot -8.62636 -12.3727
rtoes -6.06394
lfemur -31.3619 9.90087 -10.8567
ltibia 31.9178
lfoot -12.3116 -0.762398
ltoes -23.6547
67
root -6.50477 17.753 0.13573 -79.0535 86.7914 -96.4604
lowerback 2.91836 1.9625 -1.08284
upperback 3.3628 2.67112 4.39643
thorax 1.56742 1.31572 5.10714
lowerneck -16.0635 -1.65207 1.35889
upperneck 39.5205 0.634061 -4.18105
head 17.1341 0.435115 -1.84464
rclavicle -1.70955e-014 -6.91771e-014
rhumerus -6.85131 -1.20321 -101.792
rradius 22.9989
rwrist -37.8609
rhand -12.5517 -4.08919
rfingers 7.12502
rthumb 13.5254 -33.6299
lclavicle -1.70955e-014 -6.91771e-014
lhumerus -8.47089 -46.8362 110.275
lradius 21.7867
lwrist 35.6828
lhand -12.398 75.0877
lfingers 7.12502
lthumb -166.327 75.3815
rfemur -31.1804 -3.13375 12.0692
rtibia 29.6934
rfoot -8.67979 -12.3483
rtoes -5.28388
lfemur -31.4879 9.99322 -10.9282
ltibia 31.94
lfoot -12.2557 -0.897558
ltoes -23.4945
68
root -6.50496 17.7533 0.135993 -78.8977 86.8047 -96.3211
lowerback 2.9274 1.97993 -1.15606
upperback 3.36613 2.69437 4.45212
thorax 1.55805 1.3261 5.20632
lowerneck -16.0874 -1.67703 1.26762
upperneck 39.5341 0.632111 -4.18396
head 17.1484 0.420739 -1.83031
rclavicle 2.18663e-014 4.45278e-014
rhumerus -6.80855 -1.36601 -101.794
rradius 22.894
rwrist -37.7602
rhand -12.7859 -3.77675
rfingers 7.12502
rthumb 13.2995 -33.3324
lclavicle 2.18663e-014 4.45278e-014
lhumerus -8.64386 -47.3482 110.412
lradius 21.8813
lwrist 35.2423
lhand -12.3025 75.0186
lfingers 7.12502
lthumb -166.235 75.4567
rfemur -31.2043 -3.17121 12.0715
rtibia 29.6967
rfoot -8.75324 -12.2957
rtoes -4.85935
lfemur -31.5277 10.0586 -10.9604
ltibia 31.972
lfoot -12.2416 -0.944784
ltoes -23.3425
69
root -6.50529 17.754 0.13502 -78.9626 86.7583 -96.3611
lowerback 3.00449 2.01756 -1.17058
upperback 3.36326 2.74755 4.53236
thorax 1.50248 1.35391 5.29418
lowerneck -16.1125 -1.72454 1.19021
upperneck 39.5618 0.599741 -4.20141
head 17.1693 0.395115 -1.83091
rclavicle -3.57812e-015 -1.59028e-015
rhumerus -6.7832 -1.52979 -101.727
rradius 22.8084
rwrist -37.6761
rhand -12.9126 -3.61064
rfingers 7.12502
rthumb 13.1775 -33.1742
lclavicle -3.57812e-015 -1.59028e-015
lhumerus -8.86522 -47.8242 110.62
lradius 22.0064
lwrist 35.0222
lhand -12.719 75.1843
lfingers 7.12502
lthumb -166.636 75.2643
rfemur -31.1841 -3.19827 12.1328
rtibia 29.7062
rfoot -8.81095 -12.2495
rtoes -4.84824
lfemur -31.5222 10.1213 -10.9254
ltibia 32.0068
lfoot -12.2917 -1.00487
ltoes -23.2732
70
root -6.50662 17.7558 0.133787 -79.3863 86.7349 -96.7774
lowerback 3.05861 2.03734 -1.15586
upperback 3.3525 2.77635 4.57574
thorax 1.45686 1.36983 5.328
lowerneck -16.0752 -1.77561 1.15257
upperneck 39.5292 0.548684 -4.23912
head 17.1395 0.363881 -1.8492
rclavicle -9.14409e-015 -2.3059e-014
rhumerus -6.80338 -1.45275 -101.712
rradius 22.792
rwrist -38.0892
rhand -13.3613 -3.37994
rfingers 7.12502
rthumb 12.7449 -32.971
lclavicle -9.14409e-015 -2.3059e-014
lhumerus -9.10186 -48.3802 110.753
lradius 22.1947
lwrist 35.0092
lhand -13.3101 75.5296
lfingers 7.12502
lthumb -167.206 74.8824
rfemur -31.1834 -3.23791 12.1663
rtibia 29.7247
rfoot -8.74911 -12.2117
rtoes -5.18685
lfemur -31.5359 10.1458 -10.9092
ltibia 32.0366
lfoot -12.3376 -1.08113
ltoes -23.0998
71
root -6.50825 17.7562 0.133505 -79.7334 86.7416 -97.1289
lowerback 3.06911 2.03228 -1.17559
upperback 3.35469 2.77013 4.60652
thorax 1.45163 1.36651 5.37135
lowerneck -16.027 -1.77819 1.1551
upperneck 39.5019 0.570725 -4.30454
head 17.1135 0.364734 -1.87373
rclavicle -6.36111e-015 -1.27222e-014
rhumerus -6.80282 -1.42556 -101.723
rradius 22.7445
rwrist -38.2739
rhand -13.487 -3.47565
rfingers 7.12502
rthumb 12.6237 -33.0742
lclavicle -6.36111e-015 -1.27222e-014
lhumerus -9.26403 -48.893 110.776
lradius 22.3645
lwrist 34.9588
lhand -13.2487 75.8612
lfingers 7.12502
lthumb -167.147 74.5546
rfemur -31.2087 -3.29161 12.1726
rtibia 29.7573
rfoot -8.62963 -12.1884
rtoes -5.89386
lfemur -31.5559 10.1763 -10.9289
ltibia 32.0483
lfoot -12.3667 -1.13382
ltoes -23.1645
72
root -6.50876 17.7545 0.133588 -80.3345 86.7807 -97.7359
lowerback 3.03793 1.9977 -1.25694
upperback 3.37645 2.72275 4.65374
thorax 1.49089 1.34029 5.47055
lowerneck -16.021 -1.73419 1.15866
upperneck 39.5057 0.680596 -4.40216
head 17.1204 0.397145 -1.89816
rclavicle -5.96354e-015 -1.59028e-014
rhumerus -6.78029 -1.37399 -101.701
rradius 22.6589
rwrist -38.3343
rhand -13.2237 -3.72255
rfingers 7.12502
rthumb 12.8776 -33.3053
lclavicle -5.96354e-015 -1.59028e-014
lhumerus -9.34686 -49.2953 110.741
lradius 22.5512
lwrist 34.8844
lhand -13.2327 76.0678
lfingers 7.12502
lthumb -167.131 74.349
rfemur -31.228 -3.31207 12.1244
rtibia 29.7979
rfoot -8.58406 -12.2147
rtoes -6.43735
lfemur -31.5813 10.228 -10.9999
ltibia 32.0391
lfoot -12.3949 -1.1956
ltoes -23.3392
73
root -6.50966 17.754 0.133072 -81.0292 86.8675 -98.448
lowerback 3.02269 1.96882 -1.36135
upperback 3.38582 2.68199 4.66716
thorax 1.50842 1.31718 5.54615
lowerneck -16.0264 -1.72768 1.14261
upperneck 39.4975 0.711783 -4.44288
head 17.1194 0.401359 -1.90787
rclavicle -8.34896e-015 -7.95139e-016
rhumerus -6.68558 -1.75281 -101.734
rradius 22.4238
rwrist -38.0401
rhand -13.067 -3.67701
rfingers 7.12502
rthumb 13.0286 -33.2501
lclavicle -8.34896e-015 -7.95139e-016
lhumerus -9.45531 -49.8697 110.704
lradius 22.7572
lwrist 34.9212
lhand -12.8547 75.7061
lfingers 7.12502
lthumb -166.767 74.734
rfemur -31.2589 -3.31933 12.0144
rtibia 29.8408
rfoot -8.59043 -12.252
rtoes -6.54536
lfemur -31.6098 10.2382 -11.1229
ltibia 32.0083
lfoot -12.3807 -1.22985
ltoes -23.4468
